<svg width="162" height="19" viewBox="0 0 162 19" fill="none" xmlns="http://www.w3.org/2000/svg">
<path fill-rule="evenodd" clip-rule="evenodd" d="M9.40753 19C14.6032 19 18.8151 14.7467 18.8151 9.5C18.8151 4.25329 14.6032 0 9.40753 0C4.21189 0 0 4.25329 0 9.5C0 14.7467 4.21189 19 9.40753 19ZM14.2538 4.60604H4.5612V14.3939H14.2538V4.60604Z" fill="black"/>
<path d="M26.7467 3.94144V15.2216H25.7267V3.94144H26.7467Z" fill="black"/>
<path d="M30.1477 9.93402V15.2216H29.1768V6.76148H30.1204V8.08888H30.2077C30.404 7.65559 30.7095 7.3086 31.124 7.04789C31.5421 6.78351 32.0585 6.65132 32.673 6.65132C33.2366 6.65132 33.7311 6.77066 34.1566 7.00933C34.5856 7.24434 34.9183 7.59133 35.1547 8.05032C35.3947 8.50932 35.5147 9.07296 35.5147 9.74125V15.2216H34.5438V9.80183C34.5438 9.10784 34.3511 8.55889 33.9657 8.15497C33.5839 7.75106 33.0712 7.54911 32.4276 7.54911C31.9876 7.54911 31.5967 7.64458 31.2549 7.83552C30.9131 8.02646 30.6422 8.30185 30.4422 8.6617C30.2458 9.01788 30.1477 9.44198 30.1477 9.93402Z" fill="black"/>
<path d="M43.9186 6.76148L40.8588 15.2216H39.8224L36.7626 6.76148H37.8153L40.3024 13.9272H40.3788L42.8659 6.76148H43.9186Z" fill="black"/>
<path d="M45.4911 15.2216V6.76148H46.4674V15.2216H45.4911ZM45.9874 5.3074C45.7874 5.3074 45.6165 5.23947 45.4747 5.10361C45.3329 4.96407 45.262 4.797 45.262 4.60239C45.262 4.40778 45.3329 4.24254 45.4747 4.10668C45.6165 3.96715 45.7874 3.89738 45.9874 3.89738C46.1874 3.89738 46.3583 3.96715 46.5001 4.10668C46.6419 4.24254 46.7128 4.40778 46.7128 4.60239C46.7128 4.797 46.6419 4.96407 46.5001 5.10361C46.3583 5.23947 46.1874 5.3074 45.9874 5.3074Z" fill="black"/>
<path d="M54.3259 8.61764L53.4368 8.871C53.3496 8.61764 53.2259 8.38814 53.0659 8.18251C52.906 7.97689 52.6969 7.81349 52.4387 7.69231C52.1842 7.57114 51.8678 7.51055 51.4897 7.51055C50.9224 7.51055 50.457 7.64641 50.0934 7.91814C49.7297 8.18986 49.5479 8.54053 49.5479 8.97014C49.5479 9.33366 49.6716 9.62925 49.9188 9.85691C50.1697 10.0809 50.5552 10.259 51.0751 10.3912L52.3405 10.7051C53.0423 10.8777 53.5677 11.1513 53.9168 11.5258C54.2695 11.9003 54.4459 12.3703 54.4459 12.9358C54.4459 13.4132 54.315 13.8373 54.0532 14.2081C53.7914 14.579 53.4259 14.8709 52.9569 15.0839C52.4914 15.2932 51.9515 15.3978 51.3369 15.3978C50.5188 15.3978 49.8443 15.2124 49.3134 14.8415C48.7825 14.467 48.4425 13.9272 48.2935 13.2222L49.2261 12.9909C49.3461 13.4939 49.5807 13.874 49.9297 14.131C50.2824 14.3881 50.7461 14.5166 51.3206 14.5166C51.9642 14.5166 52.4787 14.3715 52.8641 14.0815C53.2496 13.7877 53.4423 13.4205 53.4423 12.9799C53.4423 12.6384 53.3296 12.352 53.1041 12.1207C52.8787 11.8856 52.5369 11.7131 52.0787 11.6029L50.7097 11.2724C49.9825 11.0962 49.4443 10.8171 49.0952 10.4352C48.7462 10.0534 48.5716 9.57968 48.5716 9.0142C48.5716 8.54787 48.6971 8.13845 48.948 7.78595C49.1989 7.42977 49.5443 7.1507 49.9843 6.94875C50.4243 6.74679 50.9261 6.64581 51.4897 6.64581C52.2569 6.64581 52.8696 6.82207 53.3277 7.17457C53.7895 7.5234 54.1223 8.00443 54.3259 8.61764Z" fill="black"/>
<path d="M56.2447 15.2216V6.76148H57.221V15.2216H56.2447ZM56.741 5.3074C56.541 5.3074 56.3701 5.23947 56.2283 5.10361C56.0865 4.96407 56.0156 4.797 56.0156 4.60239C56.0156 4.40778 56.0865 4.24254 56.2283 4.10668C56.3701 3.96715 56.541 3.89738 56.741 3.89738C56.941 3.89738 57.1119 3.96715 57.2537 4.10668C57.3955 4.24254 57.4664 4.40778 57.4664 4.60239C57.4664 4.797 57.3955 4.96407 57.2537 5.10361C57.1119 5.23947 56.941 5.3074 56.741 5.3074Z" fill="black"/>
<path d="M59.6525 15.2216V3.94144H60.6288V8.37529H60.7161C60.8252 8.12193 60.9815 7.86122 61.1852 7.59317C61.3924 7.32512 61.6633 7.10113 61.9978 6.92121C62.336 6.73761 62.7614 6.64581 63.2741 6.64581C63.9614 6.64581 64.565 6.82941 65.085 7.1966C65.6049 7.56012 66.0104 8.07052 66.3013 8.72779C66.5922 9.3814 66.7376 10.1433 66.7376 11.0136C66.7376 11.8875 66.5922 12.6531 66.3013 13.3104C66.014 13.9676 65.6104 14.4799 65.0904 14.8471C64.5741 15.2142 63.9741 15.3978 63.2905 15.3978C62.7814 15.3978 62.356 15.306 62.0142 15.1224C61.676 14.9389 61.4033 14.713 61.1961 14.445C60.9888 14.1733 60.8288 13.9089 60.7161 13.6518H60.5961V15.2216H59.6525ZM60.6125 10.997C60.6125 11.68 60.7125 12.2859 60.9124 12.8146C61.1161 13.3397 61.407 13.7528 61.7851 14.0539C62.1669 14.3513 62.6287 14.5001 63.1705 14.5001C63.7268 14.5001 64.1977 14.3458 64.5832 14.0374C64.9686 13.7253 65.2613 13.3048 65.4613 12.7761C65.6613 12.2473 65.7613 11.6543 65.7613 10.997C65.7613 10.3471 65.6613 9.76144 65.4613 9.24003C65.265 8.71861 64.9741 8.30552 64.5886 8.00075C64.2032 7.69231 63.7305 7.53809 63.1705 7.53809C62.6251 7.53809 62.1615 7.6868 61.7797 7.98423C61.4015 8.27798 61.1124 8.68557 60.9124 9.20698C60.7125 9.72472 60.6125 10.3214 60.6125 10.997Z" fill="black"/>
<path d="M69.5032 3.94144V15.2216H68.5323V3.94144H69.5032Z" fill="black"/>
<path d="M75.1213 15.3978C74.3396 15.3978 73.6632 15.2142 73.0924 14.8471C72.5215 14.4762 72.0797 13.964 71.767 13.3104C71.4579 12.6531 71.3034 11.8967 71.3034 11.0411C71.3034 10.1892 71.4579 9.4328 71.767 8.77186C72.0797 8.10724 72.5106 7.58766 73.0596 7.21313C73.6123 6.83492 74.2505 6.64581 74.9741 6.64581C75.4286 6.64581 75.8668 6.73027 76.2886 6.89918C76.7104 7.06441 77.0885 7.31961 77.423 7.66477C77.7612 8.00626 78.0285 8.43771 78.2248 8.95913C78.4212 9.47687 78.5194 10.0901 78.5194 10.7988V11.2835H71.9742V10.4187H77.5267C77.5267 9.87527 77.4176 9.3869 77.1994 8.95362C76.9849 8.51666 76.6849 8.1715 76.2995 7.91814C75.9177 7.66477 75.4759 7.53809 74.9741 7.53809C74.4432 7.53809 73.9759 7.6813 73.5723 7.96771C73.1687 8.25412 72.8524 8.63232 72.6233 9.10233C72.3978 9.57234 72.2833 10.0864 72.2797 10.6445V11.1623C72.2797 11.8342 72.3942 12.4218 72.6233 12.9248C72.856 13.4242 73.1851 13.8116 73.6105 14.087C74.0359 14.3624 74.5396 14.5001 75.1213 14.5001C75.5177 14.5001 75.8649 14.4376 76.1631 14.3128C76.4649 14.1879 76.7176 14.0209 76.9213 13.8116C77.1285 13.5986 77.2849 13.3654 77.3903 13.1121L78.3121 13.415C78.1848 13.7712 77.9758 14.0998 77.6849 14.4009C77.3976 14.702 77.0376 14.9444 76.6049 15.128C76.1758 15.3079 75.6813 15.3978 75.1213 15.3978Z" fill="black"/>
<path d="M82.5244 15.2216L79.3282 3.94144H81.9081L83.7571 11.7792H83.8498L85.8897 3.94144H88.0987L90.1331 11.7957H90.2313L92.0803 3.94144H94.6602L91.464 15.2216H89.1623L87.0351 7.84653H86.9478L84.8261 15.2216H82.5244Z" fill="black"/>
<path d="M98.0992 15.3868C97.252 15.3868 96.5193 15.2051 95.9011 14.8415C95.2866 14.4744 94.8121 13.964 94.4776 13.3104C94.143 12.6531 93.9758 11.8912 93.9758 11.0246C93.9758 10.1507 94.143 9.3869 94.4776 8.7333C94.8121 8.07603 95.2866 7.56563 95.9011 7.20211C96.5193 6.83492 97.252 6.65132 98.0992 6.65132C98.9464 6.65132 99.6773 6.83492 100.292 7.20211C100.91 7.56563 101.386 8.07603 101.721 8.7333C102.055 9.3869 102.223 10.1507 102.223 11.0246C102.223 11.8912 102.055 12.6531 101.721 13.3104C101.386 13.964 100.91 14.4744 100.292 14.8415C99.6773 15.2051 98.9464 15.3868 98.0992 15.3868ZM98.1101 13.5692C98.4955 13.5692 98.8173 13.4591 99.0755 13.2388C99.3337 13.0148 99.5282 12.71 99.6591 12.3244C99.7937 11.9389 99.8609 11.5001 99.8609 11.0081C99.8609 10.516 99.7937 10.0772 99.6591 9.69167C99.5282 9.30612 99.3337 9.00135 99.0755 8.77737C98.8173 8.55338 98.4955 8.44138 98.1101 8.44138C97.721 8.44138 97.3938 8.55338 97.1283 8.77737C96.8665 9.00135 96.6684 9.30612 96.5338 9.69167C96.4029 10.0772 96.3375 10.516 96.3375 11.0081C96.3375 11.5001 96.4029 11.9389 96.5338 12.3244C96.6684 12.71 96.8665 13.0148 97.1283 13.2388C97.3938 13.4591 97.721 13.5692 98.1101 13.5692Z" fill="black"/>
<path d="M103.396 15.2216V6.76148H105.648V8.23759H105.735C105.888 7.71251 106.145 7.31594 106.504 7.04789C106.864 6.77617 107.279 6.64031 107.748 6.64031C107.864 6.64031 107.99 6.64765 108.124 6.66234C108.259 6.67703 108.377 6.69722 108.479 6.72292V8.8049C108.37 8.77186 108.219 8.74248 108.026 8.71678C107.834 8.69108 107.657 8.67822 107.497 8.67822C107.155 8.67822 106.85 8.7535 106.581 8.90405C106.315 9.05092 106.105 9.25655 105.948 9.52093C105.795 9.78531 105.719 10.0901 105.719 10.4352V15.2216H103.396Z" fill="black"/>
<path d="M111.448 12.7871L111.453 9.97258H111.791L114.475 6.76148H117.142L113.537 11.0136H112.986L111.448 12.7871ZM109.342 15.2216V3.94144H111.666V15.2216H109.342ZM114.578 15.2216L112.113 11.5368L113.662 9.87894L117.3 15.2216H114.578Z" fill="black"/>
<path d="M117.944 18.3941V6.76148H120.235V8.18251H120.338C120.44 7.95485 120.587 7.72352 120.78 7.48852C120.977 7.24985 121.231 7.05156 121.544 6.89367C121.86 6.7321 122.253 6.65132 122.722 6.65132C123.333 6.65132 123.896 6.81289 124.413 7.13602C124.929 7.45547 125.342 7.93833 125.651 8.58459C125.96 9.22718 126.114 10.0332 126.114 11.0026C126.114 11.9462 125.964 12.743 125.662 13.393C125.364 14.0392 124.956 14.5294 124.44 14.8636C123.927 15.1941 123.353 15.3593 122.716 15.3593C122.266 15.3593 121.882 15.284 121.566 15.1335C121.253 14.9829 120.997 14.7938 120.797 14.5662C120.597 14.3348 120.444 14.1017 120.338 13.8666H120.268V18.3941H117.944ZM120.218 10.9915C120.218 11.4946 120.288 11.9334 120.426 12.3079C120.564 12.6825 120.764 12.9744 121.026 13.1837C121.287 13.3893 121.606 13.4921 121.98 13.4921C122.358 13.4921 122.678 13.3875 122.94 13.1782C123.202 12.9652 123.4 12.6714 123.535 12.2969C123.673 11.9187 123.742 11.4836 123.742 10.9915C123.742 10.5032 123.675 10.0736 123.54 9.70269C123.406 9.33183 123.207 9.04174 122.946 8.83244C122.684 8.62314 122.362 8.51849 121.98 8.51849C121.602 8.51849 121.282 8.61947 121.02 8.82143C120.762 9.02338 120.564 9.30979 120.426 9.68066C120.288 10.0515 120.218 10.4885 120.218 10.9915Z" fill="black"/>
<path d="M129.649 3.94144V15.2216H127.326V3.94144H129.649Z" fill="black"/>
<path d="M133.561 15.3813C133.027 15.3813 132.551 15.2877 132.132 15.1004C131.714 14.9095 131.383 14.6286 131.14 14.2577C130.9 13.8832 130.78 13.4168 130.78 12.8587C130.78 12.3887 130.865 11.994 131.036 11.6745C131.207 11.3551 131.44 11.098 131.734 10.9034C132.029 10.7088 132.363 10.5619 132.738 10.4628C133.116 10.3636 133.512 10.2939 133.927 10.2535C134.414 10.2021 134.807 10.1543 135.105 10.1103C135.403 10.0625 135.62 9.99277 135.754 9.90097C135.889 9.80918 135.956 9.67331 135.956 9.49339V9.46034C135.956 9.11151 135.847 8.84162 135.629 8.65068C135.414 8.45974 135.109 8.36427 134.712 8.36427C134.294 8.36427 133.961 8.45791 133.714 8.64518C133.467 8.82877 133.303 9.0601 133.223 9.33917L131.074 9.16292C131.183 8.64885 131.398 8.20455 131.718 7.83001C132.038 7.4518 132.451 7.16172 132.956 6.95976C133.465 6.75414 134.054 6.65132 134.723 6.65132C135.189 6.65132 135.634 6.7064 136.06 6.81656C136.489 6.92672 136.869 7.09746 137.199 7.32879C137.534 7.56012 137.798 7.85755 137.99 8.22107C138.183 8.58092 138.279 9.01237 138.279 9.51542V15.2216H136.076V14.0484H136.01C135.876 14.3128 135.696 14.546 135.47 14.7479C135.245 14.9462 134.974 15.1023 134.658 15.2161C134.341 15.3262 133.976 15.3813 133.561 15.3813ZM134.227 13.762C134.569 13.762 134.87 13.6941 135.132 13.5582C135.394 13.4187 135.6 13.2314 135.749 12.9964C135.898 12.7614 135.972 12.4952 135.972 12.1978V11.3C135.9 11.3477 135.8 11.3918 135.672 11.4322C135.549 11.4689 135.409 11.5038 135.252 11.5368C135.096 11.5662 134.94 11.5937 134.783 11.6194C134.627 11.6415 134.485 11.6617 134.358 11.68C134.085 11.7204 133.847 11.7847 133.643 11.8728C133.44 11.9609 133.281 12.0803 133.169 12.2308C133.056 12.3777 133 12.5613 133 12.7816C133 13.1011 133.114 13.3452 133.343 13.5141C133.576 13.6794 133.871 13.762 134.227 13.762Z" fill="black"/>
<path d="M143.529 15.3868C142.671 15.3868 141.933 15.2032 141.315 14.836C140.7 14.4652 140.228 13.9511 139.897 13.2938C139.57 12.6366 139.406 11.8801 139.406 11.0246C139.406 10.158 139.571 9.39792 139.902 8.74432C140.237 8.08704 140.711 7.57481 141.326 7.20762C141.94 6.83675 142.671 6.65132 143.518 6.65132C144.249 6.65132 144.889 6.78535 145.438 7.0534C145.987 7.32145 146.422 7.69782 146.742 8.18251C147.062 8.66721 147.238 9.23636 147.271 9.88996H145.078C145.017 9.46769 144.853 9.12803 144.588 8.871C144.326 8.61029 143.982 8.47994 143.557 8.47994C143.197 8.47994 142.882 8.57908 142.613 8.77737C142.348 8.97198 142.14 9.25655 141.991 9.63109C141.842 10.0056 141.768 10.4591 141.768 10.9915C141.768 11.5313 141.84 11.9903 141.986 12.3685C142.135 12.7467 142.344 13.035 142.613 13.2332C142.882 13.4315 143.197 13.5307 143.557 13.5307C143.822 13.5307 144.06 13.4756 144.271 13.3654C144.486 13.2553 144.662 13.0955 144.8 12.8862C144.942 12.6733 145.035 12.4181 145.078 12.1207H147.271C147.235 12.7669 147.06 13.3361 146.747 13.8281C146.438 14.3165 146.011 14.6983 145.466 14.9737C144.92 15.2491 144.275 15.3868 143.529 15.3868Z" fill="black"/>
<path d="M152.239 15.3868C151.377 15.3868 150.635 15.2106 150.013 14.8581C149.395 14.5019 148.919 13.9988 148.584 13.3489C148.25 12.6953 148.083 11.9224 148.083 11.0301C148.083 10.1598 148.25 9.39608 148.584 8.73881C148.919 8.08154 149.39 7.5693 149.997 7.20211C150.608 6.83492 151.324 6.65132 152.146 6.65132C152.699 6.65132 153.213 6.74128 153.69 6.92121C154.17 7.09746 154.588 7.36367 154.944 7.71985C155.304 8.07603 155.584 8.524 155.784 9.06378C155.984 9.59988 156.084 10.2278 156.084 10.9475V11.5919H149.01V10.1378H153.897C153.897 9.8 153.824 9.50073 153.679 9.24003C153.533 8.97932 153.331 8.77553 153.073 8.62865C152.819 8.4781 152.522 8.40283 152.184 8.40283C151.832 8.40283 151.519 8.48545 151.246 8.65068C150.977 8.81225 150.766 9.03073 150.613 9.30612C150.461 9.57784 150.383 9.88078 150.379 10.2149V11.5974C150.379 12.016 150.455 12.3777 150.608 12.6825C150.764 12.9872 150.984 13.2222 151.268 13.3875C151.552 13.5527 151.888 13.6353 152.277 13.6353C152.535 13.6353 152.771 13.5986 152.986 13.5252C153.201 13.4517 153.384 13.3416 153.537 13.1947C153.69 13.0478 153.806 12.8679 153.886 12.6549L156.035 12.7981C155.926 13.3195 155.702 13.7749 155.364 14.1641C155.03 14.5496 154.597 14.8507 154.066 15.0674C153.539 15.2803 152.93 15.3868 152.239 15.3868Z" fill="black"/>
<path d="M158.423 6.76589V4.32699H159.591C159.762 4.32699 159.912 4.36004 160.043 4.42614C160.176 4.49223 160.279 4.58586 160.351 4.70704C160.425 4.82821 160.462 4.97362 160.462 5.14326C160.462 5.31511 160.424 5.46162 160.347 5.58279C160.271 5.70176 160.165 5.79319 160.03 5.85708C159.897 5.91877 159.743 5.94962 159.568 5.94962H158.783V5.47043H159.444C159.542 5.47043 159.622 5.44289 159.683 5.38781C159.744 5.33273 159.775 5.25122 159.775 5.14326C159.775 5.0309 159.744 4.94939 159.683 4.89871C159.622 4.84584 159.543 4.8194 159.447 4.8194H159.084V6.76589H158.423ZM159.994 5.64889L160.527 6.76589H159.804L159.313 5.64889H159.994ZM159.382 8.21997C159.02 8.21997 158.681 8.15167 158.364 8.01507C158.048 7.87848 157.77 7.68901 157.53 7.44666C157.29 7.20431 157.102 6.92341 156.967 6.60395C156.832 6.2845 156.764 5.94191 156.764 5.57618C156.764 5.21046 156.832 4.86787 156.967 4.54841C157.102 4.22895 157.29 3.94805 157.53 3.7057C157.77 3.46336 158.048 3.27389 158.364 3.13729C158.681 3.0007 159.02 2.9324 159.382 2.9324C159.744 2.9324 160.083 3.0007 160.4 3.13729C160.716 3.27389 160.994 3.46336 161.234 3.7057C161.474 3.94805 161.662 4.22895 161.797 4.54841C161.932 4.86787 162 5.21046 162 5.57618C162 5.94191 161.932 6.2845 161.797 6.60395C161.662 6.92341 161.474 7.20431 161.234 7.44666C160.994 7.68901 160.716 7.87848 160.4 8.01507C160.083 8.15167 159.744 8.21997 159.382 8.21997ZM159.382 7.49954C159.735 7.49954 160.056 7.41361 160.344 7.24177C160.632 7.06772 160.861 6.83528 161.031 6.54447C161.204 6.25365 161.29 5.93089 161.29 5.57618C161.29 5.22147 161.204 4.89871 161.031 4.6079C160.861 4.31708 160.631 4.08575 160.341 3.9139C160.053 3.73985 159.733 3.65283 159.382 3.65283C159.031 3.65283 158.711 3.73985 158.423 3.9139C158.135 4.08575 157.905 4.31708 157.733 4.6079C157.562 4.89871 157.477 5.22147 157.477 5.57618C157.477 5.93089 157.562 6.25365 157.733 6.54447C157.905 6.83528 158.135 7.06772 158.423 7.24177C158.711 7.41361 159.031 7.49954 159.382 7.49954Z" fill="black"/>
</svg>
